<svg xmlns="http://www.w3.org/2000/svg" xmlns:xlink="http://www.w3.org/1999/xlink" width="302.286" height="78.46" viewBox="0 0 302.286 78.46"><defs><clipPath id="a"><rect width="75.6" height="78.46" fill="#28cbab"/></clipPath></defs><g transform="translate(-80.253 -12.88)"><text transform="translate(173.539 63.61)" fill="#282829" font-size="32" font-family="Roboto-Medium, Roboto" font-weight="500"><tspan x="0" y="0">Ligspook Miev</tspan></text><g transform="translate(80.253 12.88)" clip-path="url(#a)"><path d="M252.693,497.474l-.01,0,.01,0-.088-.015a1.044,1.044,0,0,1-.812-.889v0a1.059,1.059,0,0,1-.878.9h-.021l.011,0-.011,0,.092.016a1.042,1.042,0,0,1,.807.887v0a1.048,1.048,0,0,1,.823-.892l.063-.013Z" transform="translate(-213.9 -423.343)" fill="#28cbab"/><path d="M245.844,7.984l-.021,0,.021,0-.177-.03a2.111,2.111,0,0,1-1.641-1.8V6.132s0,.006,0,.009,0-.005,0-.009v.017a2.143,2.143,0,0,1-1.777,1.828l-.012,0-.03,0,.023,0-.023,0,.187.032a2.109,2.109,0,0,1,1.632,1.795v.017s0-.005,0-.009,0,.006,0,.009V9.811a2.119,2.119,0,0,1,1.666-1.8l.126-.026Z" transform="translate(-206.492 -5.228)" fill="#28cbab"/><path d="M293.009,96.794c1.28-4.77.067-9.129-2.188-13.3-.8-1.48-1.857-2.81-1.747-4.659a7.229,7.229,0,0,0-.453-2.326c-1.364-4.731-4.582-7.979-8.517-10.675a4.934,4.934,0,0,1-1.548-1.69A11.8,11.8,0,0,0,265.174,58a6.119,6.119,0,0,0-5.145,6.494q0,12.04,0,24.081h0c0,8.178.017,16.356-.023,24.535a1.9,1.9,0,0,0,1.1,1.858,73.174,73.174,0,0,1,6.976,4.451,9.316,9.316,0,0,0,8.382,1.884,21.88,21.88,0,0,0,13.917-9.6c2.6-4.115,3.092-8.778,2.635-13.56a3.927,3.927,0,0,1,0-1.348m-2.536-9.305c.226.658.49,1.307.649,1.981a.742.742,0,0,1-.4.609,7.741,7.741,0,0,1-1.464.133l.912-2.66.3-.063m-1.066-1.147c-.418,1.321-.918,2.618-1.421,3.91a1.053,1.053,0,0,1-.561.52,20.978,20.978,0,0,0-7.272,4.9,2.3,2.3,0,0,1-.487.3,12.5,12.5,0,0,0-.056-3.48c-.641-2.1.312-2.986,2.006-3.859a15.578,15.578,0,0,0,6.459-5.993c.744,1.351,1.787,2.263,1.333,3.7M286.985,82.5a13.393,13.393,0,0,1-4.743,4.623,60.7,60.7,0,0,0-6.64,4.323l-.066.057c.818-4.815,4.079-9.143,9.071-12,.256-.012.513-.017.773-.013,1.982.036,2.6,1.2,1.6,3.009m-10.05,19.536a11.815,11.815,0,0,1-.625,1.809c-7.528,1.649-9.309,3.291-11.371,5.192a21.921,21.921,0,0,1-3,2.419c.079-.284.188-.616.32-1.016a30.889,30.889,0,0,1,5.461-9.356,52.935,52.935,0,0,1,7.887-8.44,18.329,18.329,0,0,1,1.631-1.225,5.43,5.43,0,0,1,1.083-.413,5.844,5.844,0,0,1,.322,1.153c.244,3.433-.882,6.618-1.712,9.876m-8.51-3.364a1.5,1.5,0,0,0-.272.456l-.551-.159c.328-2.153.272-4.355,1.4-6.384,1.437-2.591,2.326-5.445,4.352-7.762a13,13,0,0,1,4.9-3.7A22.428,22.428,0,0,1,282.9,79.7c-4.708,3.134-7.668,7.634-8.21,12.564-2.2,2.009-4.179,4.273-6.261,6.416m-.158-7.213c-.262-1.514-.437-2.955-.778-4.355-.256-1.051-.752-2.042-1.086-3.078-.114-.352-.234-.923-.053-1.115,2.129-2.268,4.314-4.482,6.68-6.912.815,2.806-3.22,13.273-4.763,15.459m-1.195-.733h0c.015,0,.028,0,.043,0a22.231,22.231,0,0,1-4.711,16.306V99.946a6.63,6.63,0,0,1,.444-2.249,17.174,17.174,0,0,0,.736-3.045c.419-2.092,2.044-3.923,3.484-3.923M285.4,73.875a12.545,12.545,0,0,1,1.638,4.5c-1.692.159-3.272.194-4.8.483s-3.031.833-4.744,1.322a15.241,15.241,0,0,1,1.11-1.406c1.736-1.728,3.5-3.426,5.251-5.141.639-.627,1.094-.62,1.551.246m-5.76-5.962c1.4,1.212,2.769,2.455,4.1,3.736a.934.934,0,0,1-.1.9c-3.932,3.09-7.021,6.974-10.217,10.758a4.644,4.644,0,0,1-.633.495,26.309,26.309,0,0,0,1.116-4.854,9.127,9.127,0,0,1,2.78-6.307c1.012-1.062,1.351-2.8,1.869-4.281.248-.71.523-.935,1.087-.446m-4.207-4.884a19.023,19.023,0,0,1,2.274,4,3.787,3.787,0,0,1-.51,2.7,22.655,22.655,0,0,1-2.961,4.22,37.489,37.489,0,0,1-3.873,3.307c-.071.059-.208.038-.382.066.135-1.707.292-3.374.39-5.045.079-1.356.137-2.716.117-4.073a5.265,5.265,0,0,1,3.8-5.4,1.292,1.292,0,0,1,1.147.231m-1.585-1.488L270.226,64.4l-1.862-4.709a8.363,8.363,0,0,1,5.479,1.851M265.807,59.8a1.5,1.5,0,0,1,1.65.683,11.782,11.782,0,0,1,2.011,7.206c-.029,3.544-.448,7.086-.738,10.625a2.024,2.024,0,0,1-.506.974q-2.905,3.624-5.844,7.221a3.29,3.29,0,0,1-.479.335c0-.633,0-1.1,0-1.562q-.005-10.4-.008-20.8a4.538,4.538,0,0,1,3.914-4.687m-2.826,27.673c.693-1.065,1.4-2.118,2.238-3.372a11.549,11.549,0,0,1,1.808,5.6c-1.915.034-3.946,2.2-4.453,4.765q0,.013,0,.025A15.833,15.833,0,0,1,261.9,97.3c0-1.96-.008-3.92-.041-5.88a6.767,6.767,0,0,1,1.126-3.948m6.2,30.21c-1.965-1.238-3.781-2.382-5.6-3.527-1.005-.634-1.528-.976-1.711-1.429a22.223,22.223,0,0,0,3.766-2.927c1.953-1.8,3.516-3.24,10.084-4.76a29.745,29.745,0,0,1-3.116,4.307,14.1,14.1,0,0,0-3.238,7.624,5.7,5.7,0,0,1-.189.713m8.652,1.3c-1.946.614-3.918,1.178-5.972.428-.7-.257-1.5-.42-1.586-1.375a2.056,2.056,0,0,1,1.034-2.3c1.439-.74,2.81-1.635,4.3-2.244,2.96-1.21,5.746-.517,8.372,1.1.192.119.368.266.708.514a19.376,19.376,0,0,1-6.856,3.876m7.931-4.8a.7.7,0,0,1-.62.032c-1.312-.628-2.61-1.286-3.908-1.944-.088-.045-.142-.157-.348-.4a17.138,17.138,0,0,1,6.844.366c-.768.77-1.346,1.381-1.968,1.943m2.839-3.476c-.67.523-1.973.237-2.993.311l-.107-.506,4.67-3.435a5.276,5.276,0,0,1-1.57,3.63m.374-4A28.164,28.164,0,0,0,286,108.961c-1.929,1.723-4.34,1.925-6.713,2.355a21.087,21.087,0,0,0-7.232,2.844,4.549,4.549,0,0,1-.718.326c-.052.02-.134-.036-.432-.129.326-.716.59-1.439.965-2.1a21.834,21.834,0,0,1,10.89-9.649c2.462-1.029,4.776-2.41,7.156-3.635.325-.167.64-.352,1.24-.683,0,1.614-.03,2.984.007,4.352a4.485,4.485,0,0,1-2.183,4.063m1.271-9.2c-2.378,1.448-4.861,2.725-7.323,4.031-1.663.882-3.355,1.711-5.036,2.557a4.841,4.841,0,0,1-.606.2c.888-3.639,1.679-7.2,5.09-9.272a5.024,5.024,0,0,1,2.466-.694,35.89,35.89,0,0,1,4.94.372c.522.07,1.44.618,1.406.808a3.121,3.121,0,0,1-.936,2m1.313-4.138c-.091.263-.515.618-.75.591-1.716-.2-3.422-.479-5.13-.74a3.526,3.526,0,0,1-.549-.245,12.011,12.011,0,0,1,5.335-1.887c.778-.05,1.13.279,1.12,1.043a4.154,4.154,0,0,1-.025,1.238" transform="translate(-221.665 -49.163)" fill="#28cbab"/><path d="M365,508.91l-.021,0,.021,0-.177-.03a2.111,2.111,0,0,1-1.641-1.8v-.017s0,.006,0,.008,0-.005,0-.008v.017A2.143,2.143,0,0,1,361.4,508.9l-.012,0-.03,0,.023,0-.023,0,.186.032a2.109,2.109,0,0,1,1.632,1.795v.017s0-.005,0-.009,0,.006,0,.009v-.017a2.119,2.119,0,0,1,1.666-1.8l.126-.026Z" transform="translate(-308.075 -432.294)" fill="#28cbab"/><path d="M410.97,479.749l-.011,0,.011,0-.089-.015a1.056,1.056,0,0,1-.821-.9v0a1.072,1.072,0,0,1-.889.914h-.021l.011,0-.011,0,.093.016a1.054,1.054,0,0,1,.816.9v0a1.06,1.06,0,0,1,.833-.9l.063-.013Z" transform="translate(-348.822 -408.223)" fill="#28cbab"/><path d="M486.123,199.654l-.021,0,.021,0-.177-.03a2.11,2.11,0,0,1-1.641-1.8V197.8s0,.006,0,.009,0-.005,0-.009v.017a2.143,2.143,0,0,1-1.777,1.828l-.012,0-.03,0,.023,0-.023,0,.186.032a2.108,2.108,0,0,1,1.632,1.795v.017s0-.005,0-.009,0,.006,0,.009v-.017a2.118,2.118,0,0,1,1.665-1.8l.126-.026Z" transform="translate(-411.343 -168.637)" fill="#28cbab"/><path d="M462.4,92.645l-.021,0,.021,0-.177-.03a2.111,2.111,0,0,1-1.641-1.8v-.017s0,.006,0,.009,0-.005,0-.009v.017a2.143,2.143,0,0,1-1.777,1.828l-.012,0-.03,0,.023,0-.023,0,.187.032a2.109,2.109,0,0,1,1.632,1.795v.017s0-.005,0-.009,0,.006,0,.009v-.017a2.119,2.119,0,0,1,1.666-1.8l.126-.026Z" transform="translate(-391.118 -77.406)" fill="#28cbab"/><path d="M321.224,1.852l-.021,0,.021,0-.177-.03a2.111,2.111,0,0,1-1.641-1.8V0s0,.006,0,.009,0-.005,0-.009V.017a2.143,2.143,0,0,1-1.777,1.828l-.012,0-.03,0,.023,0-.023,0,.186.032A2.108,2.108,0,0,1,319.4,3.679V3.7s0-.005,0-.009,0,.006,0,.009V3.679a2.119,2.119,0,0,1,1.666-1.8l.126-.026Z" transform="translate(-270.758)" fill="#28cbab"/><path d="M498.117,416.764l-.015,0,.015,0-.123-.021a1.465,1.465,0,0,1-1.14-1.248v-.012s0,0,0,.006v.006a1.488,1.488,0,0,1-1.234,1.269h-.008l-.021,0,.016,0-.016,0,.129.023a1.464,1.464,0,0,1,1.133,1.246v.006s0,0,0,.006v-.012a1.471,1.471,0,0,1,1.157-1.253l.088-.018Z" transform="translate(-422.516 -354.218)" fill="#28cbab"/><path d="M498.117,309.649l-.015,0,.015,0-.123-.021a1.466,1.466,0,0,1-1.14-1.248v-.012s0,0,0,.006v.006a1.488,1.488,0,0,1-1.234,1.269h-.008l-.021,0,.016,0-.016,0,.129.023a1.464,1.464,0,0,1,1.133,1.246v.006s0,0,0,.006v-.012a1.472,1.472,0,0,1,1.157-1.253l.088-.018Z" transform="translate(-422.516 -262.896)" fill="#28cbab"/><path d="M402.643,67.687l-.015,0,.015,0-.123-.021a1.466,1.466,0,0,1-1.14-1.248V66.4a.055.055,0,0,1,0,.006v.006a1.488,1.488,0,0,1-1.234,1.269h-.008l-.021,0,.016,0-.016,0,.129.023a1.464,1.464,0,0,1,1.133,1.246v.006a.057.057,0,0,1,0,.006v-.012a1.471,1.471,0,0,1,1.157-1.253l.088-.018Z" transform="translate(-341.12 -56.61)" fill="#28cbab"/><path d="M25.857,98.143c-.456,4.782.034,9.446,2.635,13.56a21.88,21.88,0,0,0,13.917,9.6,9.316,9.316,0,0,0,8.382-1.884,73.152,73.152,0,0,1,6.976-4.451,1.9,1.9,0,0,0,1.1-1.858c-.04-8.178-.023-16.356-.023-24.535h0q0-12.04,0-24.081A6.119,6.119,0,0,0,53.691,58a11.8,11.8,0,0,0-13.383,6.142,4.933,4.933,0,0,1-1.548,1.69c-3.935,2.7-7.153,5.944-8.517,10.674a7.23,7.23,0,0,0-.453,2.326c.11,1.85-.947,3.179-1.747,4.659-2.255,4.172-3.468,8.531-2.188,13.3a3.925,3.925,0,0,1,0,1.348m2.836-10.59.912,2.66a7.744,7.744,0,0,1-1.465-.133.743.743,0,0,1-.4-.609c.16-.674.424-1.323.649-1.981l.3.063m2.1-4.911a15.579,15.579,0,0,0,6.459,5.993c1.694.873,2.647,1.763,2.006,3.859a12.5,12.5,0,0,0-.056,3.48,2.313,2.313,0,0,1-.487-.3,20.974,20.974,0,0,0-7.272-4.9,1.054,1.054,0,0,1-.561-.52c-.5-1.292-1-2.589-1.421-3.91-.455-1.438.589-2.35,1.332-3.7m2.694-3.147c.26,0,.517,0,.773.012,4.992,2.857,8.253,7.185,9.071,12l-.066-.057a60.711,60.711,0,0,0-6.64-4.323A13.391,13.391,0,0,1,31.879,82.5c-1-1.806-.377-2.974,1.6-3.009m6.734,12.669a5.864,5.864,0,0,1,.322-1.153,5.44,5.44,0,0,1,1.083.413,18.39,18.39,0,0,1,1.631,1.225,52.939,52.939,0,0,1,7.886,8.44,30.884,30.884,0,0,1,5.461,9.357c.133.4.241.731.32,1.016a21.931,21.931,0,0,1-3-2.419c-2.061-1.9-3.842-3.544-11.371-5.192a11.819,11.819,0,0,1-.625-1.809c-.829-3.259-1.956-6.444-1.712-9.876m3.96.1c-.542-4.93-3.5-9.429-8.21-12.564a22.418,22.418,0,0,1,4.644,1.434,13,13,0,0,1,4.9,3.7c2.026,2.318,2.915,5.171,4.352,7.763,1.126,2.03,1.07,4.232,1.4,6.384l-.551.159a1.507,1.507,0,0,0-.272-.456c-2.081-2.143-4.062-4.407-6.261-6.416M45.834,76c2.366,2.429,4.551,4.644,6.68,6.912.18.192.06.763-.053,1.115-.334,1.036-.829,2.026-1.086,3.078-.341,1.4-.516,2.84-.778,4.355C49.054,89.276,45.019,78.809,45.834,76m9.442,18.649a17.2,17.2,0,0,0,.736,3.046,6.623,6.623,0,0,1,.444,2.249v7.084a22.229,22.229,0,0,1-4.711-16.306c.014,0,.028,0,.043,0h0c1.44,0,3.065,1.831,3.484,3.923M35.019,73.63c1.749,1.715,3.514,3.413,5.251,5.141a15.2,15.2,0,0,1,1.11,1.406c-1.713-.489-3.2-1.032-4.744-1.322s-3.113-.324-4.8-.483a12.547,12.547,0,0,1,1.638-4.5c.456-.866.911-.873,1.551-.246m5.3-5.269c.517,1.479.857,3.219,1.869,4.281a9.128,9.128,0,0,1,2.78,6.307A26.3,26.3,0,0,0,46.08,83.8a4.639,4.639,0,0,1-.633-.495c-3.2-3.784-6.285-7.668-10.217-10.758a.934.934,0,0,1-.1-.9c1.333-1.281,2.705-2.524,4.1-3.736.563-.489.838-.263,1.087.446M44.583,62.8a5.266,5.266,0,0,1,3.8,5.4c-.02,1.357.037,2.718.116,4.074.1,1.671.255,3.338.39,5.045-.175-.027-.311-.007-.382-.066a37.513,37.513,0,0,1-3.873-3.307,22.662,22.662,0,0,1-2.961-4.22,3.787,3.787,0,0,1-.51-2.7,19.016,19.016,0,0,1,2.275-4,1.292,1.292,0,0,1,1.147-.231M50.5,59.69,48.638,64.4l-3.617-2.857A8.363,8.363,0,0,1,50.5,59.69m6.471,4.8q0,10.4-.008,20.8c0,.464,0,.929,0,1.562a3.277,3.277,0,0,1-.479-.335q-2.93-3.6-5.844-7.221a2.025,2.025,0,0,1-.506-.974c-.29-3.54-.709-7.081-.738-10.625a11.782,11.782,0,0,1,2.011-7.206,1.5,1.5,0,0,1,1.65-.683,4.538,4.538,0,0,1,3.914,4.687m.038,26.934c-.033,1.96-.041,3.919-.041,5.88a15.837,15.837,0,0,1-.673-2.81c0-.009,0-.017,0-.025-.508-2.565-2.539-4.731-4.453-4.765a11.548,11.548,0,0,1,1.808-5.6c.833,1.254,1.545,2.307,2.238,3.372a6.767,6.767,0,0,1,1.126,3.948M49.5,116.969a14.1,14.1,0,0,0-3.238-7.624,29.757,29.757,0,0,1-3.116-4.307c6.568,1.521,8.13,2.959,10.084,4.761a22.218,22.218,0,0,0,3.766,2.927c-.184.453-.706.8-1.711,1.429-1.815,1.145-3.632,2.289-5.6,3.527a5.735,5.735,0,0,1-.188-.713m-15.32-1.863c.34-.248.515-.4.708-.514,2.626-1.618,5.413-2.312,8.372-1.1,1.49.609,2.861,1.5,4.3,2.244a2.057,2.057,0,0,1,1.034,2.3c-.086.954-.883,1.118-1.586,1.374-2.054.75-4.026.186-5.972-.428a19.376,19.376,0,0,1-6.856-3.875m-3.043-2.864a17.138,17.138,0,0,1,6.844-.366c-.206.24-.26.352-.348.4-1.3.657-2.6,1.316-3.908,1.944a.7.7,0,0,1-.62-.032c-.622-.563-1.2-1.174-1.968-1.943m-2.442-5.163,4.67,3.435-.107.506c-1.02-.075-2.323.212-2.993-.311a5.276,5.276,0,0,1-1.57-3.631m-.986-4.437c.037-1.368.007-2.737.007-4.352.6.331.915.516,1.24.683,2.38,1.225,4.694,2.606,7.156,3.635A21.835,21.835,0,0,1,47,112.258c.375.66.639,1.383.965,2.1-.3.092-.38.149-.432.129a4.551,4.551,0,0,1-.718-.326,21.086,21.086,0,0,0-7.232-2.844c-2.373-.43-4.783-.633-6.712-2.355a28.147,28.147,0,0,0-2.981-2.255,4.484,4.484,0,0,1-2.183-4.063M27.681,95.5c-.034-.19.883-.739,1.406-.808a35.937,35.937,0,0,1,4.94-.372,5.022,5.022,0,0,1,2.466.694c3.411,2.074,4.2,5.632,5.09,9.272a4.8,4.8,0,0,1-.606-.2c-1.682-.846-3.373-1.675-5.036-2.557-2.462-1.306-4.945-2.583-7.323-4.031a3.121,3.121,0,0,1-.936-2m-.4-3.375c-.01-.764.342-1.093,1.12-1.043a12.011,12.011,0,0,1,5.335,1.887,3.514,3.514,0,0,1-.549.244c-1.708.261-3.414.543-5.13.74-.236.027-.66-.328-.751-.591a4.155,4.155,0,0,1-.025-1.238" transform="translate(-21.599 -49.164)" fill="#28cbab"/><path d="M126.689,508.91l.021,0-.021,0,.177-.03a2.111,2.111,0,0,0,1.641-1.8v-.017s0,.006,0,.008,0-.005,0-.008v.017a2.143,2.143,0,0,0,1.777,1.828l.012,0,.03,0-.023,0,.023,0-.187.032a2.109,2.109,0,0,0-1.632,1.795v.017s0-.005,0-.009,0,.006,0,.009v-.017a2.119,2.119,0,0,0-1.666-1.8l-.126-.026Z" transform="translate(-108.009 -432.294)" fill="#28cbab"/><path d="M91.239,479.749l.011,0-.011,0,.089-.015a1.056,1.056,0,0,0,.821-.9v0a1.072,1.072,0,0,0,.889.914h.021l-.011,0,.011,0-.093.016a1.054,1.054,0,0,0-.816.9v0a1.06,1.06,0,0,0-.833-.9l-.063-.013Z" transform="translate(-77.786 -408.223)" fill="#28cbab"/><path d="M5.561,199.654l.021,0-.021,0,.177-.03a2.111,2.111,0,0,0,1.641-1.8V197.8s0,.006,0,.009,0-.005,0-.009v.017a2.143,2.143,0,0,0,1.777,1.828l.012,0,.03,0-.023,0,.023,0-.187.032a2.108,2.108,0,0,0-1.632,1.795v.017s0-.005,0-.009,0,.006,0,.009v-.017a2.119,2.119,0,0,0-1.666-1.8l-.126-.026Z" transform="translate(-4.741 -168.637)" fill="#28cbab"/><path d="M29.284,92.645l.021,0-.021,0,.177-.03a2.111,2.111,0,0,0,1.641-1.8v-.017s0,.006,0,.009,0-.005,0-.009v.017a2.143,2.143,0,0,0,1.777,1.828l.012,0,.03,0-.023,0,.023,0-.187.032a2.109,2.109,0,0,0-1.632,1.795v.017s0-.005,0-.009,0,.006,0,.009v-.017a2.119,2.119,0,0,0-1.666-1.8l-.126-.026Z" transform="translate(-24.966 -77.406)" fill="#28cbab"/><path d="M170.46,1.852l.021,0-.021,0,.177-.03a2.111,2.111,0,0,0,1.641-1.8V0s0,.006,0,.009,0-.005,0-.009V.017a2.143,2.143,0,0,0,1.777,1.828l.012,0,.03,0-.023,0,.023,0-.187.032a2.109,2.109,0,0,0-1.632,1.795V3.7s0-.005,0-.009,0,.006,0,.009V3.679a2.119,2.119,0,0,0-1.666-1.8l-.126-.026Z" transform="translate(-145.326)" fill="#28cbab"/><path d="M0,416.764l.015,0-.015,0,.123-.021a1.465,1.465,0,0,0,1.14-1.248v-.012s0,0,0,.006v.006A1.488,1.488,0,0,0,2.5,416.759h.008l.021,0-.016,0,.016,0-.129.023a1.464,1.464,0,0,0-1.133,1.246v.006s0,0,0,.006v-.012A1.471,1.471,0,0,0,.106,416.78l-.088-.018Z" transform="translate(0 -354.218)" fill="#28cbab"/><path d="M0,309.649l.015,0-.015,0,.123-.021a1.466,1.466,0,0,0,1.14-1.248v-.012s0,0,0,.006v.006A1.488,1.488,0,0,0,2.5,309.644h.008l.021,0-.016,0,.016,0-.129.023a1.464,1.464,0,0,0-1.133,1.246v.006s0,0,0,.006v-.012a1.472,1.472,0,0,0-1.157-1.253l-.088-.018Z" transform="translate(0 -262.896)" fill="#28cbab"/><path d="M95.474,67.687l.015,0-.015,0,.123-.021a1.466,1.466,0,0,0,1.14-1.248V66.4s0,0,0,.006v.006a1.488,1.488,0,0,0,1.234,1.269h.008l.021,0-.016,0,.016,0-.129.023a1.464,1.464,0,0,0-1.133,1.246v.006s0,0,0,.006v-.012A1.472,1.472,0,0,0,95.58,67.7l-.088-.018Z" transform="translate(-81.397 -56.61)" fill="#28cbab"/></g></g></svg>